<?xml version="1.0" standalone="no"?>
<!DOCTYPE svg PUBLIC "-//W3C//DTD SVG 1.0//EN" "http://www.w3.org/TR/2001/REC-SVG-20010904/DTD/svg10.dtd">
<svg xmlns="http://www.w3.org/2000/svg" xmlns:xlink="http://www.w3.org/1999/xlink" id="body_1" width="143" height="108">

<g transform="matrix(0.13964844 0 0 0.140625 0 0)">
	<g transform="matrix(16 0 0 16 128 -0)">
	</g>
    <path transform="matrix(16 0 0 16 128 -0)"  d="M17.2 18.1C 14.300001 17.5 10.400001 17.5 9.000001 20.1C 7.100001 23.4 10.100001 25 11.900002 23.300001C 13.700002 21.6 10.300001 17.300001 3.9000015 19.500002" stroke="#45413C" stroke-width="1" stroke-linecap="round" fill="none" />
	<g transform="matrix(13.2944 -8.904 8.904 13.2944 -123.620804 413.7472)">
	</g>
    <path transform="matrix(13.2944 -8.904 8.904 13.2944 -123.620804 413.7472)"  d="M29.6 38.8C 29.6 35.983345 31.883348 33.7 34.7 33.7C 37.516655 33.7 39.8 35.983345 39.8 38.8C 39.8 41.616653 37.516655 43.899998 34.7 43.899998C 31.883348 43.899998 29.6 41.616653 29.6 38.8" stroke="none" fill="#9F5AE5" fill-rule="nonzero" />
	<g transform="matrix(16 0 0 16 128 -0)">
	</g>
    <path transform="matrix(16 0 0 16 128 -0)"  d="M39.4 37C 39.2 37.2 39 37.3 38.800003 37.5C 37.700005 38.2 36.4 38.6 35.200005 38.6C 34.900005 40.199997 34.000004 41.699997 32.500004 42.8C 32.300003 43 32.000004 43.1 31.700005 43.2C 31.200005 42.8 30.700005 42.4 30.300005 41.8C 29.100004 40 29.200005 37.8 30.300005 36.1C 30.700005 35.6 31.100004 35.1 31.700005 34.699997C 32.400005 34.199997 33.200005 33.899998 34.000004 33.899998C 35.800003 33.699997 37.700005 34.499996 38.800003 36.1C 39.1 36.3 39.3 36.6 39.4 37z" stroke="none" fill="#803EC2" fill-rule="nonzero" />
	<g transform="matrix(13.2944 -8.904 8.904 13.2944 -123.620804 413.7472)">
	</g>
    <path transform="matrix(13.2944 -8.904 8.904 13.2944 -123.620804 413.7472)"  d="M29.6 38.8C 29.6 35.983345 31.883348 33.7 34.7 33.7C 37.516655 33.7 39.8 35.983345 39.8 38.8C 39.8 41.616653 37.516655 43.899998 34.7 43.899998C 31.883348 43.899998 29.6 41.616653 29.6 38.8" stroke="#45413C" stroke-width="1" stroke-linecap="round" fill="none" />
	<g transform="matrix(13.2944 -8.904 8.904 13.2944 37.184 292.3584)">
	</g>
    <path transform="matrix(13.2944 -8.904 8.904 13.2944 37.184 292.3584)"  d="M21.5 18.5C 21.5 15.351976 24.051977 12.8 27.2 12.8C 30.348024 12.8 32.9 15.351976 32.9 18.5C 32.9 21.648024 30.348024 24.2 27.2 24.2C 24.051977 24.2 21.5 21.648024 21.5 18.5" stroke="#45413C" stroke-width="1" stroke-linecap="round" fill="#803EC2" fill-rule="nonzero" />
	<g transform="matrix(16 0 0 16 128 -0)">
	</g>
    <path transform="matrix(16 0 0 16 128 -0)"  d="M13.6 44.3C 13.6 43.361115 19.465069 42.6 26.7 42.6C 33.934933 42.6 39.800003 43.361115 39.800003 44.3C 39.800003 45.238884 33.934933 46 26.7 46C 19.465069 46 13.6 45.238884 13.6 44.3" stroke="none" fill="#45413C" fill-rule="nonzero" fill-opacity="0.14901961" />
	<g transform="matrix(13.2944 -8.904 8.904 13.2944 -36.455994 232.0352)">
	</g>
    <path transform="matrix(13.2944 -8.904 8.904 13.2944 -36.455994 232.0352)"  d="M13.000001 24.2C 13.000001 21.051977 15.551977 18.5 18.7 18.5C 21.848024 18.5 24.400002 21.051977 24.400002 24.2C 24.400002 27.348024 21.848024 29.900002 18.7 29.900002C 15.551977 29.900002 13.000001 27.348024 13.000001 24.2" stroke="none" fill="#9F5AE5" fill-rule="nonzero" />
	<g transform="matrix(16 0 0 16 128 -0)">
	</g>
    <path transform="matrix(16 0 0 16 128 -0)"  d="M15.6 22.4C 18.2 20.699999 21.7 21.4 23.5 24C 23.9 24.5 24.1 25.1 24.3 25.7C 24.699999 24.2 24.5 22.5 23.5 21C 21.8 18.4 18.2 17.7 15.6 19.4C 13.5 20.8 12.700001 23.3 13.3 25.599998C 13.6 24.4 14.4 23.2 15.6 22.4z" stroke="none" fill="#BF8DF2" fill-rule="nonzero" />
	<g transform="matrix(13.2944 -8.904 8.904 13.2944 -36.455994 232.0352)">
	</g>
    <path transform="matrix(13.2944 -8.904 8.904 13.2944 -36.455994 232.0352)"  d="M13.000001 24.2C 13.000001 21.051977 15.551977 18.5 18.7 18.5C 21.848024 18.5 24.400002 21.051977 24.400002 24.2C 24.400002 27.348024 21.848024 29.900002 18.7 29.900002C 15.551977 29.900002 13.000001 27.348024 13.000001 24.2" stroke="#45413C" stroke-width="1" stroke-linecap="round" fill="none" />
	<g transform="matrix(13.2944 -8.904 8.904 13.2944 -110.2448 246.9648)">
	</g>
    <path transform="matrix(13.2944 -8.904 8.904 13.2944 -110.2448 246.9648)"  d="M12.2 32.2C 12.2 29.051977 14.751976 26.5 17.9 26.5C 21.048023 26.5 23.599998 29.051977 23.599998 32.2C 23.599998 35.348022 21.048023 37.9 17.9 37.9C 14.751976 37.9 12.2 35.348022 12.2 32.2" stroke="none" fill="#9F5AE5" fill-rule="nonzero" />
	<g transform="matrix(16 0 0 16 128 -0)">
	</g>
    <path transform="matrix(16 0 0 16 128 -0)"  d="M14.8 30.8C 17.4 29.099998 20.9 29.8 22.7 32.399998C 23 32.899998 23.300001 33.399998 23.400002 33.899998C 23.900002 32.3 23.7 30.599998 22.7 29.099998C 21 26.499998 17.400002 25.8 14.800001 27.499998C 12.700001 28.899998 11.800001 31.499998 12.500001 33.899998C 12.9 32.6 13.6 31.5 14.8 30.8z" stroke="none" fill="#BF8DF2" fill-rule="nonzero" />
	<g transform="matrix(13.2944 -8.904 8.904 13.2944 -110.2448 246.9648)">
	</g>
    <path transform="matrix(13.2944 -8.904 8.904 13.2944 -110.2448 246.9648)"  d="M12.2 32.2C 12.2 29.051977 14.751976 26.5 17.9 26.5C 21.048023 26.5 23.599998 29.051977 23.599998 32.2C 23.599998 35.348022 21.048023 37.9 17.9 37.9C 14.751976 37.9 12.2 35.348022 12.2 32.2" stroke="#45413C" stroke-width="1" stroke-linecap="round" fill="none" />
	<g transform="matrix(13.2944 -8.904 8.904 13.2944 32.3536 356.7664)">
	</g>
    <path transform="matrix(13.2944 -8.904 8.904 13.2944 32.3536 356.7664)"  d="M28 21C 28 17.851976 30.551977 15.3 33.7 15.3C 36.848022 15.3 39.4 17.851976 39.4 21C 39.4 24.148024 36.848022 26.7 33.7 26.7C 30.551977 26.7 28 24.148024 28 21" stroke="none" fill="#9F5AE5" fill-rule="nonzero" />
	<g transform="matrix(16 0 0 16 128 -0)">
	</g>
    <path transform="matrix(16 0 0 16 128 -0)"  d="M30.5 19.4C 33.1 17.699999 36.6 18.4 38.4 21C 38.7 21.5 39 22 39.100002 22.6C 39.600002 21 39.300003 19.300001 38.4 17.8C 36.7 15.199999 33.100002 14.499999 30.500002 16.199999C 28.400002 17.599998 27.500002 20.199999 28.200003 22.5C 28.6 21.3 29.4 20.2 30.5 19.4z" stroke="none" fill="#BF8DF2" fill-rule="nonzero" />
	<g transform="matrix(13.2944 -8.904 8.904 13.2944 32.3536 356.7664)">
	</g>
    <path transform="matrix(13.2944 -8.904 8.904 13.2944 32.3536 356.7664)"  d="M28 21C 28 17.851976 30.551977 15.3 33.7 15.3C 36.848022 15.3 39.4 17.851976 39.4 21C 39.4 24.148024 36.848022 26.7 33.7 26.7C 30.551977 26.7 28 24.148024 28 21" stroke="#45413C" stroke-width="1" stroke-linecap="round" fill="none" />
	<g transform="matrix(13.2944 -8.904 8.904 13.2944 -43.2128 390.6528)">
	</g>
    <path transform="matrix(13.2944 -8.904 8.904 13.2944 -43.2128 390.6528)"  d="M29.099998 29.8C 29.099998 26.651976 31.651976 24.099998 34.8 24.099998C 37.94802 24.099998 40.5 26.651976 40.5 29.8C 40.5 32.94802 37.94802 35.5 34.8 35.5C 31.651976 35.5 29.099998 32.94802 29.099998 29.8" stroke="none" fill="#9F5AE5" fill-rule="nonzero" />
	<g transform="matrix(16 0 0 16 128 -0)">
	</g>
    <path transform="matrix(16 0 0 16 128 -0)"  d="M31.6 27.5C 34.2 25.8 37.7 26.5 39.5 29.1C 39.9 29.7 40.2 30.4 40.3 31.1C 40.6 29.6 40.399998 28.1 39.5 26.7C 37.8 24.1 34.2 23.400002 31.6 25.1C 29.6 26.4 28.7 28.800001 29.2 31C 29.6 29.6 30.4 28.3 31.6 27.5z" stroke="none" fill="#BF8DF2" fill-rule="nonzero" />
	<g transform="matrix(13.2944 -8.904 8.904 13.2944 -43.2128 390.6528)">
	</g>
    <path transform="matrix(13.2944 -8.904 8.904 13.2944 -43.2128 390.6528)"  d="M29.099998 29.8C 29.099998 26.651976 31.651976 24.099998 34.8 24.099998C 37.94802 24.099998 40.5 26.651976 40.5 29.8C 40.5 32.94802 37.94802 35.5 34.8 35.5C 31.651976 35.5 29.099998 32.94802 29.099998 29.8" stroke="#45413C" stroke-width="1" stroke-linecap="round" fill="none" />
	<g transform="matrix(13.2944 -8.904 8.904 13.2944 -127.72479 335.192)">
	</g>
    <path transform="matrix(13.2944 -8.904 8.904 13.2944 -127.72479 335.192)"  d="M20.8 36.8C 20.8 33.651978 23.351976 31.099998 26.5 31.099998C 29.648024 31.099998 32.2 33.651978 32.2 36.8C 32.2 39.94802 29.648024 42.5 26.5 42.5C 23.351976 42.5 20.8 39.94802 20.8 36.8" stroke="none" fill="#9F5AE5" fill-rule="nonzero" />
	<g transform="matrix(16 0 0 16 128 -0)">
	</g>
    <path transform="matrix(16 0 0 16 128 -0)"  d="M31.9 35.3C 31.6 35.6 31.199999 36 30.8 36.2C 27.8 38.2 23.9 37.7 22.099998 35C 21.899998 34.7 21.699999 34.3 21.599998 34C 21.999998 33.3 22.599998 32.6 23.399998 32.1C 25.999998 30.399998 29.499998 31.099998 31.299997 33.699997C 31.6 34.1 31.8 34.7 31.9 35.3z" stroke="none" fill="#803EC2" fill-rule="nonzero" />
	<g transform="matrix(13.2944 -8.904 8.904 13.2944 -127.72479 335.192)">
	</g>
    <path transform="matrix(13.2944 -8.904 8.904 13.2944 -127.72479 335.192)"  d="M20.8 36.8C 20.8 33.651978 23.351976 31.099998 26.5 31.099998C 29.648024 31.099998 32.2 33.651978 32.2 36.8C 32.2 39.94802 29.648024 42.5 26.5 42.5C 23.351976 42.5 20.8 39.94802 20.8 36.8" stroke="#45413C" stroke-width="1" stroke-linecap="round" fill="none" />
	<g transform="matrix(16 0 0 16 128 -0)">
	</g>
    <path transform="matrix(16 0 0 16 128 -0)"  d="M25.6 22.3C 25.6 22.3 23.9 18.599998 18.8 15.199999C 15.799999 13.199999 12.999999 12.599998 11.599999 12.499999C 11.099999 12.399999 10.599999 12.699999 10.4 13.199999L10.4 13.199999L9.799999 14.599998C 9.499999 15.299998 9.999999 16.099998 10.799999 16.199999C 12.4 16.3 14.9 16.699999 17.4 18.199999C 22.9 21.499998 24.4 24.5 24.4 24.5L24.4 24.5L25.6 22.3z" stroke="none" fill="#6DD627" fill-rule="nonzero" />
	<g transform="matrix(16 0 0 16 128 -0)">
	</g>
    <path transform="matrix(16 0 0 16 128 -0)"  d="M18.1 16.7C 22.1 19.1 24.2 21.900002 25 23.2L25 23.2L25.5 22.300001C 25.5 22.300001 23.8 18.6 18.7 15.200001C 15.700001 13.200001 12.900001 12.6 11.500001 12.500001C 11.000001 12.400001 10.500001 12.700001 10.300001 13.200001L10.300001 13.200001L10 14.1C 11.6 14.2 14.8 14.7 18.1 16.7z" stroke="none" fill="#9CEB60" fill-rule="nonzero" />
	<g transform="matrix(16 0 0 16 128 -0)">
	</g>
    <path transform="matrix(16 0 0 16 128 -0)"  d="M25.6 22.3C 25.6 22.3 23.9 18.599998 18.8 15.199999C 15.799999 13.199999 12.999999 12.599998 11.599999 12.499999C 11.099999 12.399999 10.599999 12.699999 10.4 13.199999L10.4 13.199999L9.799999 14.599998C 9.499999 15.299998 9.999999 16.099998 10.799999 16.199999C 12.4 16.3 14.9 16.699999 17.4 18.199999C 22.9 21.499998 24.4 24.5 24.4 24.5L24.4 24.5L25.6 22.3z" stroke="#45413C" stroke-width="1" stroke-linecap="round" fill="none" />
	<g transform="matrix(13.2944 -8.904 8.904 13.2944 -39.128006 318.8)">
	</g>
    <path transform="matrix(13.2944 -8.904 8.904 13.2944 -39.128006 318.8)"  d="M20.8 27.099998C 20.8 23.344461 23.844461 20.3 27.599998 20.3C 31.355536 20.3 34.399998 23.344461 34.399998 27.099998C 34.399998 30.855536 31.355536 33.899998 27.599998 33.899998C 23.844461 33.899998 20.8 30.855536 20.8 27.099998" stroke="none" fill="#9F5AE5" fill-rule="nonzero" />
	<g transform="matrix(16 0 0 16 128 -0)">
	</g>
    <path transform="matrix(16 0 0 16 128 -0)"  d="M23.8 25.4C 26.9 23.3 31.199999 24.1 33.3 27.3C 33.7 27.9 34 28.5 34.2 29.099998C 34.8 27.199999 34.5 25.099998 33.3 23.3C 31.199999 20.199999 27 19.3 23.8 21.4C 21.199999 23.1 20.199999 26.2 21.099998 29C 21.5 27.7 22.4 26.3 23.8 25.4z" stroke="none" fill="#BF8DF2" fill-rule="nonzero" />
	<g transform="matrix(13.2944 -8.904 8.904 13.2944 -39.128006 318.8)">
	</g>
    <path transform="matrix(13.2944 -8.904 8.904 13.2944 -39.128006 318.8)"  d="M20.8 27.099998C 20.8 23.344461 23.844461 20.3 27.599998 20.3C 31.355536 20.3 34.399998 23.344461 34.399998 27.099998C 34.399998 30.855536 31.355536 33.899998 27.599998 33.899998C 23.844461 33.899998 20.8 30.855536 20.8 27.099998" stroke="#45413C" stroke-width="1" stroke-linecap="round" fill="none" />
	<g transform="matrix(16 0 0 16 128 -0)">
	</g>
    <path transform="matrix(16 0 0 16 128 -0)"  d="M16.4 5.3C 16.5 4.8 17.1 4.6000004 17.5 4.9L17.5 4.9L19.6 6.7C 19.9 7 20.4 6.8999996 20.6 6.5L20.6 6.5L20.7 6.3C 21.5 5 22.7 4.1 24 3.6L24 3.6L25 3.3C 25.3 3.2 25.7 3.3999999 25.8 3.7L25.8 3.7L26.199999 4.6C 26.8 5.7 27 7 26.9 8.3L26.9 8.3L26.9 8.6C 26.9 9.1 27.199999 9.5 27.6 9.400001L27.6 9.400001L29.800001 9.3C 30.300001 9.3 30.7 9.900001 30.500002 10.400001L30.500002 10.400001L30.200003 11.1C 29.000002 13.700001 26.700003 15.5 24.000004 15.8L24.000004 15.8L20.400003 16.3L18.100004 13.299999C 16.3 11.1 15.7 8.1 16.4 5.3z" stroke="none" fill="#6DD627" fill-rule="nonzero" />
	<g transform="matrix(16 0 0 16 128 -0)">
	</g>
    <path transform="matrix(16 0 0 16 128 -0)"  d="M16.4 7.6C 16.5 7.1 17.1 6.9 17.5 7.2L17.5 7.2L19.6 9C 19.9 9.3 20.4 9.2 20.6 8.8L20.6 8.8L20.7 8.6C 21.5 7.3 22.6 6.4000006 24 5.9000006L24 5.9000006L25 5.6000004C 25.3 5.5000005 25.7 5.7000003 25.8 6.0000005L25.8 6.0000005L26.199999 6.9000006C 26.699999 8.1 26.9 9.300001 26.8 10.6L26.8 10.6L26.8 10.900001C 26.8 11.400001 27.099998 11.8 27.5 11.700001L27.5 11.700001L29.7 11.6C 29.7 11.6 29.800001 11.6 29.800001 11.6C 29.900002 11.400001 30.000002 11.3 30.000002 11.1L30.000002 11.1L30.300001 10.400001C 30.500002 9.900001 30.2 9.3 29.6 9.3L29.6 9.3L27.4 9.400001C 27 9.400001 26.6 9.000001 26.699999 8.6L26.699999 8.6L26.699999 8.3C 27 7 26.8 5.7 26.3 4.6L26.3 4.6L25.9 3.6999998C 25.699999 3.3999999 25.4 3.1999998 25.1 3.2999997L25.1 3.2999997L24.1 3.5999997C 22.800001 3.9999998 21.6 4.9999995 20.800001 6.2999997L20.800001 6.2999997L20.7 6.4999995C 20.5 6.8999996 20 6.8999996 19.7 6.6999993L19.7 6.6999993L17.6 4.8999996C 17.2 4.5999994 16.6 4.7999997 16.5 5.2999997C 16.2 6.3999996 16.2 7.5999994 16.3 8.7C 16.2 8.3 16.3 8 16.4 7.6z" stroke="none" fill="#9CEB60" fill-rule="nonzero" />
	<g transform="matrix(16 0 0 16 128 -0)">
	</g>
    <path transform="matrix(16 0 0 16 128 -0)"  d="M16.4 5.3C 16.5 4.8 17.1 4.6000004 17.5 4.9L17.5 4.9L19.6 6.7C 19.9 7 20.4 6.8999996 20.6 6.5L20.6 6.5L20.7 6.3C 21.5 5 22.7 4.1 24 3.6L24 3.6L25 3.3C 25.3 3.2 25.7 3.3999999 25.8 3.7L25.8 3.7L26.199999 4.6C 26.8 5.7 27 7 26.9 8.3L26.9 8.3L26.9 8.6C 26.9 9.1 27.199999 9.5 27.6 9.400001L27.6 9.400001L29.800001 9.3C 30.300001 9.3 30.7 9.900001 30.500002 10.400001L30.500002 10.400001L30.200003 11.1C 29.000002 13.700001 26.700003 15.5 24.000004 15.8L24.000004 15.8L20.400003 16.3L18.100004 13.299999C 16.3 11.1 15.7 8.1 16.4 5.3z" stroke="#45413C" stroke-width="1" stroke-linecap="round" fill="none" />
	<g transform="matrix(16 0 0 16 128 -0)">
	</g>
    <path transform="matrix(16 0 0 16 128 -0)"  d="M20.3 16.3C 20.199999 14.299999 21.199999 11.4 23.199999 8.799999" stroke="#45413C" stroke-width="1" stroke-linecap="round" fill="none" />
</g>
</svg>